<?xml version="1.0" encoding="UTF-8"?>
<svg xmlns="http://www.w3.org/2000/svg" width="1024" height="1024" viewBox="0 0 1024 1024" fill="none">
  <defs>
    <linearGradient id="gblue" x1="0" y1="0" x2="0" y2="1">
      <stop offset="0%" stop-color="#5AA9DF"/>
      <stop offset="100%" stop-color="#2F6EA0"/>
    </linearGradient>
    <filter id="shadow" x="-20%" y="-20%" width="140%" height="140%">
      <feDropShadow dx="0" dy="12" stdDeviation="16" flood-opacity="0.18"/>
    </filter>
  </defs>

  <!-- subtle network nodes behind -->
  <g opacity="0.25" stroke="#1E293B" stroke-width="10">
    <circle cx="222" cy="372" r="22" fill="#1E293B"/>
    <circle cx="812" cy="412" r="22" fill="#1E293B"/>
    <circle cx="302" cy="752" r="22" fill="#1E293B"/>
    <circle cx="732" cy="772" r="22" fill="#1E293B"/>
    <line x1="222" y1="372" x2="302" y2="752"/>
    <line x1="812" y1="412" x2="732" y2="772"/>
    <line x1="302" y1="752" x2="732" y2="772"/>
  </g>

  <g filter="url(#shadow)" transform="translate(512,512)">
    <!-- gear-like face (not the official logo) -->
    <g fill="url(#gblue)" stroke="#0F172A" stroke-width="0">
      <circle r="300"/>
      <rect x="-35" y="-440" width="70" height="160" rx="28" ry="28" transform="rotate(0)" />
        <rect x="-35" y="-440" width="70" height="160" rx="28" ry="28" transform="rotate(45)" />
        <rect x="-35" y="-440" width="70" height="160" rx="28" ry="28" transform="rotate(90)" />
        <rect x="-35" y="-440" width="70" height="160" rx="28" ry="28" transform="rotate(135)" />
        <rect x="-35" y="-440" width="70" height="160" rx="28" ry="28" transform="rotate(180)" />
        <rect x="-35" y="-440" width="70" height="160" rx="28" ry="28" transform="rotate(225)" />
        <rect x="-35" y="-440" width="70" height="160" rx="28" ry="28" transform="rotate(270)" />
        <rect x="-35" y="-440" width="70" height="160" rx="28" ry="28" transform="rotate(315)" />
    </g>

    <!-- simple face -->
    <g>
      <circle cx="-85" cy="-20" r="48" fill="#FFFFFF"/>
      <circle cx="85" cy="-20" r="48" fill="#FFFFFF"/>
      <path d="M -150 80 Q 0 180 150 80" stroke="#FFFFFF" stroke-width="34" stroke-linecap="round" fill="none"/>
    </g>

    <!-- experiment flask in front -->
    <g>
      <!-- glass -->
      <path d="M -55 -120 L -55 -260 Q -55 -280 -35 -280 L 35 -280 Q 55 -280 55 -260 L 55 -120 L 170 220 Q 175 235 160 235 L -160 235 Q -175 235 -170 220 Z"
            fill="#FFFFFF" fill-opacity="0.92" stroke="#0F172A" stroke-opacity="0.08" stroke-width="8"/>
      <!-- liquid -->
      <path d="M -150 120 Q -40 80 0 120 Q 60 160 150 120 L 120 220 L -120 220 Z" fill="#94A3B8" fill-opacity="0.85"/>
      <!-- bubbles -->
      <circle cx="-20" cy="-30" r="14" fill="#94A3B8"/>
      <circle cx="25" cy="-60" r="10" fill="#94A3B8"/>
      <circle cx="0" cy="-95" r="7" fill="#94A3B8"/>
    </g>
  </g>

  <!-- crop margin to keep padding when used as an app icon -->
  <rect x="16" y="16" width="992" height="992" rx="180" ry="180" stroke="none" fill="none"/>
</svg>